<svg width="106" height="35" viewBox="0 0 106 35" fill="none" xmlns="http://www.w3.org/2000/svg">
<g clip-path="url(#clip0_75_1522)">
<path d="M54.15 12.52H53.25L52.23 9.07L46.92 9.01V27.01L49.71 27.28V28H41.04V27.28L43.83 27.01V9.01L38.52 9.07L37.5 12.52H36.63V7.99L45.39 7.93L54.15 7.99V12.52ZM63.6179 13.3435C63.9068 13.3435 64.2088 13.361 64.524 13.396C64.8392 13.4223 65.1194 13.4617 65.3646 13.5142L65.0888 15.5367C64.8524 15.4754 64.5897 15.4273 64.3008 15.3922C64.0119 15.3572 63.7404 15.3397 63.4865 15.3397C62.9087 15.3397 62.3615 15.4579 61.8449 15.6943C61.3371 15.9219 60.8906 16.2546 60.5053 16.6924C60.1201 17.1214 59.818 17.6424 59.5991 18.2553C59.3803 18.8594 59.2708 19.5335 59.2708 20.2777V28H57.0776V13.6061H58.89L59.1263 16.259H59.2183C59.516 15.7249 59.8749 15.239 60.2952 14.8013C60.7154 14.3547 61.2014 14.0001 61.753 13.7375C62.3133 13.4748 62.9349 13.3435 63.6179 13.3435ZM79.9685 13.6061V28H78.1824L77.8673 25.9775H77.7491C77.4514 26.4766 77.0661 26.8968 76.5933 27.2383C76.1206 27.5797 75.5865 27.8336 74.9911 28C74.4045 28.1751 73.7785 28.2627 73.1131 28.2627C71.9749 28.2627 71.0205 28.0788 70.2501 27.7111C69.4796 27.3433 68.8974 26.7742 68.5034 26.0038C68.1181 25.2333 67.9255 24.2439 67.9255 23.0357V13.6061H70.1319V22.8781C70.1319 24.0776 70.4033 24.975 70.9461 25.5704C71.489 26.157 72.3163 26.4503 73.4283 26.4503C74.4964 26.4503 75.3457 26.2489 75.9761 25.8462C76.6152 25.4434 77.0749 24.8524 77.3551 24.0732C77.6352 23.2852 77.7753 22.3221 77.7753 21.1839V13.6061H79.9685ZM93.8896 24.0601C93.8896 24.9794 93.6576 25.7542 93.1936 26.3846C92.7383 27.0063 92.0816 27.4747 91.2236 27.7899C90.3743 28.1051 89.3587 28.2627 88.1767 28.2627C87.1699 28.2627 86.2987 28.1839 85.5632 28.0263C84.8278 27.8687 84.1843 27.6454 83.6327 27.3565V25.3471C84.2193 25.636 84.9197 25.8987 85.734 26.1351C86.5482 26.3715 87.38 26.4897 88.2293 26.4897C89.4725 26.4897 90.3743 26.2883 90.9347 25.8856C91.495 25.4828 91.7752 24.9356 91.7752 24.2439C91.7752 23.8499 91.6614 23.5041 91.4337 23.2064C91.2148 22.9 90.8427 22.6067 90.3174 22.3265C89.7921 22.0376 89.0654 21.7224 88.1373 21.3809C87.218 21.0307 86.4213 20.6849 85.7471 20.3434C85.0817 19.9932 84.5651 19.5686 84.1974 19.0695C83.8384 18.5704 83.6589 17.9225 83.6589 17.1258C83.6589 15.9088 84.1492 14.9764 85.1298 14.3285C86.1192 13.6718 87.415 13.3435 89.0172 13.3435C89.884 13.3435 90.6939 13.431 91.4469 13.6061C92.2086 13.7725 92.9178 14.0001 93.5744 14.2891L92.839 16.0358C92.2436 15.7819 91.6088 15.5673 90.9347 15.3922C90.2605 15.2171 89.5732 15.1296 88.8728 15.1296C87.8659 15.1296 87.0911 15.2959 86.5482 15.6286C86.0141 15.9613 85.7471 16.4166 85.7471 16.9945C85.7471 17.441 85.8697 17.8087 86.1148 18.0977C86.3687 18.3866 86.7715 18.658 87.3231 18.9119C87.8747 19.1658 88.6014 19.4635 89.5032 19.805C90.405 20.1377 91.1842 20.4835 91.8409 20.8425C92.4975 21.1927 93.0009 21.6217 93.3512 22.1295C93.7101 22.6286 93.8896 23.2721 93.8896 24.0601ZM102.045 26.4766C102.404 26.4766 102.772 26.4459 103.148 26.3846C103.525 26.3233 103.831 26.2489 104.068 26.1614V27.8555C103.814 27.9694 103.459 28.0657 103.004 28.1445C102.557 28.2233 102.12 28.2627 101.691 28.2627C100.929 28.2627 100.237 28.1313 99.6156 27.8687C98.994 27.5973 98.4949 27.142 98.1185 26.5028C97.7507 25.8637 97.5669 24.9794 97.5669 23.8499V15.3134H95.5181V14.2497L97.58 13.396L98.4468 10.2703H99.7601V13.6061H103.976V15.3134H99.7601V23.7843C99.7601 24.6861 99.9659 25.3603 100.377 25.8068C100.798 26.2533 101.354 26.4766 102.045 26.4766Z" fill="#A8AADD"/>
<path d="M54.15 12.52V12.82H54.45V12.52H54.15ZM53.25 12.52L52.9623 12.6051L53.0259 12.82H53.25V12.52ZM52.23 9.07L52.5177 8.98494L52.4549 8.77252L52.2334 8.77002L52.23 9.07ZM46.92 9.01L46.9234 8.71002L46.62 8.70659V9.01H46.92ZM46.92 27.01H46.62V27.2824L46.8911 27.3086L46.92 27.01ZM49.71 27.28H50.01V27.0076L49.7389 26.9814L49.71 27.28ZM49.71 28V28.3H50.01V28H49.71ZM41.04 28H40.74V28.3H41.04V28ZM41.04 27.28L41.0111 26.9814L40.74 27.0076V27.28H41.04ZM43.83 27.01L43.8589 27.3086L44.13 27.2824V27.01H43.83ZM43.83 9.01H44.13V8.70659L43.8266 8.71002L43.83 9.01ZM38.52 9.07L38.5166 8.77002L38.2951 8.77252L38.2323 8.98494L38.52 9.07ZM37.5 12.52V12.82H37.7241L37.7877 12.6051L37.5 12.52ZM36.63 12.52H36.33V12.82H36.63V12.52ZM36.63 7.99L36.6279 7.69001L36.33 7.69205V7.99H36.63ZM45.39 7.93L45.3921 7.62998L45.3879 7.63001L45.39 7.93ZM54.15 7.99H54.45V7.69205L54.1521 7.69001L54.15 7.99ZM54.15 12.22H53.25V12.82H54.15V12.22ZM53.5377 12.4349L52.5177 8.98494L51.9423 9.15505L52.9623 12.6051L53.5377 12.4349ZM52.2334 8.77002L46.9234 8.71002L46.9166 9.30998L52.2266 9.36998L52.2334 8.77002ZM46.62 9.01V27.01H47.22V9.01H46.62ZM46.8911 27.3086L49.6811 27.5786L49.7389 26.9814L46.9489 26.7114L46.8911 27.3086ZM49.41 27.28V28H50.01V27.28H49.41ZM49.71 27.7H41.04V28.3H49.71V27.7ZM41.34 28V27.28H40.74V28H41.34ZM41.0689 27.5786L43.8589 27.3086L43.8011 26.7114L41.0111 26.9814L41.0689 27.5786ZM44.13 27.01V9.01H43.53V27.01H44.13ZM43.8266 8.71002L38.5166 8.77002L38.5234 9.36998L43.8334 9.30998L43.8266 8.71002ZM38.2323 8.98494L37.2123 12.4349L37.7877 12.6051L38.8077 9.15505L38.2323 8.98494ZM37.5 12.22H36.63V12.82H37.5V12.22ZM36.93 12.52V7.99H36.33V12.52H36.93ZM36.6321 8.28999L45.3921 8.22999L45.3879 7.63001L36.6279 7.69001L36.6321 8.28999ZM45.3879 8.22999L54.1479 8.28999L54.1521 7.69001L45.3921 7.63001L45.3879 8.22999ZM53.85 7.99V12.52H54.45V7.99H53.85ZM64.524 13.396L64.4909 13.6943L64.4991 13.695L64.524 13.396ZM65.3646 13.5142L65.6618 13.5547L65.6994 13.2791L65.4274 13.2209L65.3646 13.5142ZM65.0888 15.5367L65.0135 15.8271L65.3404 15.9119L65.386 15.5772L65.0888 15.5367ZM61.8449 15.6943L61.9676 15.9681L61.9697 15.9671L61.8449 15.6943ZM60.5053 16.6924L60.7285 16.8929L60.7305 16.8906L60.5053 16.6924ZM59.5991 18.2553L59.8812 18.3574L59.8817 18.3562L59.5991 18.2553ZM59.2708 28V28.3H59.5708V28H59.2708ZM57.0776 28H56.7776V28.3H57.0776V28ZM57.0776 13.6061V13.3061H56.7776V13.6061H57.0776ZM58.89 13.6061L59.1888 13.5795L59.1644 13.3061H58.89V13.6061ZM59.1263 16.259L58.8275 16.2857L58.8519 16.559H59.1263V16.259ZM59.2183 16.259V16.559H59.3945L59.4803 16.4051L59.2183 16.259ZM60.2952 14.8013L60.5116 15.009L60.5137 15.0069L60.2952 14.8013ZM61.753 13.7375L61.6256 13.4658L61.624 13.4666L61.753 13.7375ZM63.6179 13.6435C63.8947 13.6435 64.1857 13.6603 64.4909 13.6942L64.5572 13.0978C64.232 13.0617 63.9189 13.0435 63.6179 13.0435V13.6435ZM64.4991 13.695C64.8047 13.7204 65.0718 13.7583 65.3017 13.8076L65.4274 13.2209C65.167 13.1651 64.8738 13.1241 64.549 13.097L64.4991 13.695ZM65.0673 13.4737L64.7915 15.4962L65.386 15.5772L65.6618 13.5547L65.0673 13.4737ZM65.1641 15.2463C64.9126 15.1811 64.6366 15.1308 64.3369 15.0944L64.2647 15.6901C64.5428 15.7238 64.7921 15.7697 65.0135 15.8271L65.1641 15.2463ZM64.3369 15.0944C64.0377 15.0582 63.7541 15.0397 63.4865 15.0397V15.6397C63.7268 15.6397 63.986 15.6563 64.2647 15.6901L64.3369 15.0944ZM63.4865 15.0397C62.8664 15.0397 62.2765 15.1669 61.7201 15.4215L61.9697 15.9671C62.4464 15.7489 62.951 15.6397 63.4865 15.6397V15.0397ZM61.7222 15.4205C61.1733 15.6666 60.6923 16.0258 60.2801 16.4942L60.7305 16.8906C61.0888 16.4835 61.5009 16.1773 61.9676 15.9681L61.7222 15.4205ZM60.2821 16.492C59.8677 16.9535 59.5469 17.5095 59.3166 18.1544L59.8817 18.3562C60.0891 17.7753 60.3725 17.2894 60.7285 16.8929L60.2821 16.492ZM59.3171 18.1531C59.0846 18.7947 58.9708 19.5041 58.9708 20.2777H59.5708C59.5708 19.563 59.6759 18.9241 59.8812 18.3574L59.3171 18.1531ZM58.9708 20.2777V28H59.5708V20.2777H58.9708ZM59.2708 27.7H57.0776V28.3H59.2708V27.7ZM57.3776 28V13.6061H56.7776V28H57.3776ZM57.0776 13.9061H58.89V13.3061H57.0776V13.9061ZM58.5911 13.6328L58.8275 16.2857L59.4252 16.2324L59.1888 13.5795L58.5911 13.6328ZM59.1263 16.559H59.2183V15.959H59.1263V16.559ZM59.4803 16.4051C59.7656 15.8933 60.1093 15.4281 60.5116 15.009L60.0788 14.5935C59.6406 15.0499 59.2663 15.5566 58.9562 16.113L59.4803 16.4051ZM60.5137 15.0069C60.9085 14.5873 61.3641 14.2549 61.8819 14.0083L61.624 13.4666C61.0386 13.7453 60.5224 14.1221 60.0767 14.5956L60.5137 15.0069ZM61.8803 14.0091C62.3968 13.767 62.9743 13.6435 63.6179 13.6435V13.0435C62.8955 13.0435 62.2298 13.1826 61.6256 13.4658L61.8803 14.0091ZM79.9685 13.6061H80.2685V13.3061H79.9685V13.6061ZM79.9685 28V28.3H80.2685V28H79.9685ZM78.1824 28L77.886 28.0462L77.9256 28.3H78.1824V28ZM77.8673 25.9775L78.1637 25.9313L78.1241 25.6775H77.8673V25.9775ZM77.7491 25.9775V25.6775H77.5787L77.4914 25.8238L77.7491 25.9775ZM74.9911 28L74.9104 27.711L74.9053 27.7125L74.9911 28ZM68.5034 26.0038L68.235 26.1379L68.2363 26.1404L68.5034 26.0038ZM67.9255 13.6061V13.3061H67.6255V13.6061H67.9255ZM70.1319 13.6061H70.4319V13.3061H70.1319V13.6061ZM70.9461 25.5704L70.7244 25.7725L70.7259 25.7741L70.9461 25.5704ZM75.9761 25.8462L75.8162 25.5924L75.8146 25.5934L75.9761 25.8462ZM77.3551 24.0732L77.6374 24.1747L77.6377 24.1737L77.3551 24.0732ZM77.7753 13.6061V13.3061H77.4753V13.6061H77.7753ZM79.6685 13.6061V28H80.2685V13.6061H79.6685ZM79.9685 27.7H78.1824V28.3H79.9685V27.7ZM78.4789 27.9538L78.1637 25.9313L77.5708 26.0237L77.886 28.0462L78.4789 27.9538ZM77.8673 25.6775H77.7491V26.2775H77.8673V25.6775ZM77.4914 25.8238C77.2148 26.2876 76.8575 26.6775 76.4177 26.9951L76.769 27.4815C77.2748 27.1162 77.688 26.6655 78.0067 26.1312L77.4914 25.8238ZM76.4177 26.9951C75.9753 27.3146 75.4737 27.5537 74.9104 27.7111L75.0718 28.2889C75.6992 28.1136 76.2658 27.8449 76.769 27.4815L76.4177 26.9951ZM74.9053 27.7125C74.3488 27.8786 73.7519 27.9627 73.1131 27.9627V28.5627C73.805 28.5627 74.4602 28.4716 75.0769 28.2875L74.9053 27.7125ZM73.1131 27.9627C72.0054 27.9627 71.0983 27.7835 70.3793 27.4403L70.1208 27.9818C70.9428 28.3741 71.9444 28.5627 73.1131 28.5627V27.9627ZM70.3793 27.4403C69.6691 27.1014 69.1349 26.5799 68.7705 25.8672L68.2363 26.1404C68.6598 26.9686 69.2901 27.5853 70.1208 27.9818L70.3793 27.4403ZM68.7717 25.8696C68.4139 25.1541 68.2255 24.215 68.2255 23.0357H67.6255C67.6255 24.2729 67.8223 25.3125 68.235 26.1379L68.7717 25.8696ZM68.2255 23.0357V13.6061H67.6255V23.0357H68.2255ZM67.9255 13.9061H70.1319V13.3061H67.9255V13.9061ZM69.8319 13.6061V22.8781H70.4319V13.6061H69.8319ZM69.8319 22.8781C69.8319 24.1166 70.1114 25.1002 70.7244 25.7725L71.1678 25.3683C70.6951 24.8498 70.4319 24.0385 70.4319 22.8781H69.8319ZM70.7259 25.7741C71.345 26.4431 72.2664 26.7503 73.4283 26.7503V26.1503C72.3663 26.1503 71.6329 25.8709 71.1663 25.3666L70.7259 25.7741ZM73.4283 26.7503C74.5304 26.7503 75.4425 26.5431 76.1376 26.099L75.8146 25.5934C75.2489 25.9548 74.4625 26.1503 73.4283 26.1503V26.7503ZM76.136 26.1C76.8373 25.6581 77.3369 25.0105 77.6374 24.1747L77.0728 23.9717C76.8129 24.6944 76.3931 25.2288 75.8162 25.5924L76.136 26.1ZM77.6377 24.1737C77.9327 23.3441 78.0753 22.3449 78.0753 21.1839H77.4753C77.4753 22.2994 77.3378 23.2263 77.0724 23.9727L77.6377 24.1737ZM78.0753 21.1839V13.6061H77.4753V21.1839H78.0753ZM77.7753 13.9061H79.9685V13.3061H77.7753V13.9061ZM93.1936 26.3846L92.952 26.2068L92.9515 26.2074L93.1936 26.3846ZM91.2236 27.7899L91.1202 27.5083L91.1192 27.5086L91.2236 27.7899ZM83.6327 27.3565H83.3327V27.538L83.4935 27.6222L83.6327 27.3565ZM83.6327 25.3471L83.7652 25.078L83.3327 24.8649V25.3471H83.6327ZM91.4337 23.2064L91.1895 23.3809L91.1954 23.3887L91.4337 23.2064ZM90.3174 22.3265L90.1728 22.5894L90.1762 22.5912L90.3174 22.3265ZM88.1373 21.3809L88.0305 21.6613L88.0337 21.6625L88.1373 21.3809ZM85.7471 20.3434L85.6074 20.6089L85.6115 20.611L85.7471 20.3434ZM84.1974 19.0695L83.9538 19.2447L83.9559 19.2475L84.1974 19.0695ZM85.1298 14.3285L85.2952 14.5788L85.2957 14.5784L85.1298 14.3285ZM91.4469 13.6061L91.3789 13.8984L91.3829 13.8992L91.4469 13.6061ZM93.5744 14.2891L93.8509 14.4055L93.9655 14.1334L93.6952 14.0145L93.5744 14.2891ZM92.839 16.0358L92.7213 16.3117L92.9985 16.4299L93.1155 16.1522L92.839 16.0358ZM86.5482 15.6286L86.3914 15.3728L86.3896 15.374L86.5482 15.6286ZM86.1148 18.0977L85.886 18.2918L85.8895 18.2957L86.1148 18.0977ZM89.5032 19.805L89.3969 20.0855L89.3993 20.0864L89.5032 19.805ZM91.8409 20.8425L91.6969 21.1057L91.6997 21.1072L91.8409 20.8425ZM93.3512 22.1295L93.1041 22.2999L93.1076 22.3047L93.3512 22.1295ZM93.5896 24.0601C93.5896 24.9269 93.3717 25.6365 92.952 26.2068L93.4352 26.5625C93.9434 25.872 94.1896 25.0319 94.1896 24.0601H93.5896ZM92.9515 26.2074C92.5372 26.773 91.9332 27.2096 91.1202 27.5083L91.327 28.0715C92.23 27.7398 92.9393 27.2395 93.4356 26.5619L92.9515 26.2074ZM91.1192 27.5086C90.3118 27.8083 89.3334 27.9627 88.1767 27.9627V28.5627C89.384 28.5627 90.4369 28.4019 91.328 28.0711L91.1192 27.5086ZM88.1767 27.9627C87.1844 27.9627 86.3353 27.8849 85.6261 27.7329L85.5004 28.3196C86.2621 28.4828 87.1553 28.5627 88.1767 28.5627V27.9627ZM85.6261 27.7329C84.9119 27.5799 84.295 27.3647 83.7719 27.0907L83.4935 27.6222C84.0735 27.9261 84.7437 28.1575 85.5004 28.3196L85.6261 27.7329ZM83.9327 27.3565V25.3471H83.3327V27.3565H83.9327ZM83.5001 25.6162C84.1063 25.9148 84.8239 26.1833 85.6503 26.4232L85.8176 25.847C85.0155 25.6141 84.3323 25.3573 83.7652 25.078L83.5001 25.6162ZM85.6503 26.4232C86.4918 26.6675 87.3517 26.7897 88.2293 26.7897V26.1897C87.4082 26.1897 86.6046 26.0755 85.8176 25.847L85.6503 26.4232ZM88.2293 26.7897C89.4913 26.7897 90.4716 26.5879 91.1098 26.1292L90.7596 25.642C90.2771 25.9888 89.4538 26.1897 88.2293 26.1897V26.7897ZM91.1098 26.1292C91.7487 25.6699 92.0752 25.0319 92.0752 24.2439H91.4752C91.4752 24.8393 91.2413 25.2957 90.7596 25.642L91.1098 26.1292ZM92.0752 24.2439C92.0752 23.7877 91.9418 23.377 91.672 23.0242L91.1954 23.3887C91.3809 23.6312 91.4752 23.9122 91.4752 24.2439H92.0752ZM91.6778 23.0321C91.4209 22.6723 91.0035 22.3524 90.4586 22.0618L90.1762 22.5912C90.682 22.861 91.0088 23.1276 91.1896 23.3808L91.6778 23.0321ZM90.462 22.0636C89.9178 21.7643 89.1753 21.4432 88.2409 21.0994L88.0337 21.6625C88.9555 22.0016 89.6664 22.3108 90.1728 22.5894L90.462 22.0636ZM88.2441 21.1006C87.3319 20.7531 86.5452 20.4113 85.8827 20.0758L85.6115 20.611C86.2974 20.9584 87.1042 21.3084 88.0305 21.6613L88.2441 21.1006ZM85.8868 20.0779C85.2531 19.7444 84.7746 19.3472 84.4389 18.8915L83.9559 19.2475C84.3556 19.79 84.9103 20.242 85.6074 20.6089L85.8868 20.0779ZM84.4409 18.8943C84.1282 18.4596 83.9589 17.8783 83.9589 17.1258H83.3589C83.3589 17.9668 83.5486 18.6813 83.9539 19.2447L84.4409 18.8943ZM83.9589 17.1258C83.9589 16.0053 84.4022 15.1688 85.2952 14.5788L84.9645 14.0782C83.8963 14.7839 83.3589 15.8124 83.3589 17.1258H83.9589ZM85.2957 14.5784C86.2215 13.964 87.4539 13.6435 89.0172 13.6435V13.0435C87.3761 13.0435 86.0169 13.3796 84.9639 14.0785L85.2957 14.5784ZM89.0172 13.6435C89.8639 13.6435 90.6507 13.729 91.3789 13.8983L91.5148 13.3139C90.7371 13.1331 89.9042 13.0435 89.0172 13.0435V13.6435ZM91.3829 13.8992C92.1267 14.0617 92.8167 14.2834 93.4536 14.5637L93.6952 14.0145C93.0188 13.7168 92.2904 13.4833 91.5109 13.3131L91.3829 13.8992ZM93.2979 14.1726L92.5625 15.9193L93.1155 16.1522L93.8509 14.4055L93.2979 14.1726ZM92.9567 15.7598C92.3466 15.4996 91.6976 15.2805 91.0101 15.1019L90.8592 15.6826C91.5201 15.8542 92.1406 16.0641 92.7213 16.3117L92.9567 15.7598ZM91.0101 15.1019C90.3112 14.9203 89.5985 14.8296 88.8728 14.8296V15.4296C89.5479 15.4296 90.2099 15.5139 90.8592 15.6826L91.0101 15.1019ZM88.8728 14.8296C87.8399 14.8296 87.0014 14.999 86.3915 15.3729L86.705 15.8844C87.1807 15.5928 87.8919 15.4296 88.8728 15.4296V14.8296ZM86.3896 15.374C85.777 15.7556 85.4471 16.3024 85.4471 16.9945H86.0471C86.0471 16.5308 86.2513 16.167 86.7068 15.8833L86.3896 15.374ZM85.4471 16.9945C85.4471 17.4988 85.587 17.9392 85.8861 18.2917L86.3436 17.9036C86.1524 17.6782 86.0471 17.3832 86.0471 16.9945H85.4471ZM85.8895 18.2957C86.1825 18.6291 86.6276 18.922 87.1976 19.1844L87.4485 18.6394C86.9154 18.394 86.555 18.144 86.3402 17.8996L85.8895 18.2957ZM87.1976 19.1844C87.7581 19.4424 88.4919 19.7428 89.3969 20.0855L89.6094 19.5244C88.7108 19.1841 87.9913 18.8892 87.4485 18.6394L87.1976 19.1844ZM89.3993 20.0864C90.291 20.4154 91.0562 20.7554 91.697 21.1057L91.9848 20.5792C91.3122 20.2116 90.5189 19.8599 89.607 19.5235L89.3993 20.0864ZM91.6997 21.1072C92.3227 21.4394 92.7863 21.8388 93.1042 22.2998L93.5981 21.9592C93.2156 21.4046 92.6723 20.9459 91.982 20.5778L91.6997 21.1072ZM93.1076 22.3047C93.4207 22.74 93.5896 23.3172 93.5896 24.0601H94.1896C94.1896 23.227 93.9995 22.5172 93.5947 21.9543L93.1076 22.3047ZM103.148 26.3846L103.1 26.0885L103.148 26.3846ZM104.068 26.1614H104.368V25.7303L103.964 25.88L104.068 26.1614ZM104.068 27.8555L104.19 28.1293L104.368 28.0498V27.8555H104.068ZM103.004 28.1445L102.953 27.8489L102.952 27.849L103.004 28.1445ZM99.6156 27.8687L99.4956 28.1436L99.4989 28.145L99.6156 27.8687ZM98.1185 26.5028L97.8584 26.6524L97.86 26.6551L98.1185 26.5028ZM97.5669 15.3134H97.8669V15.0134H97.5669V15.3134ZM95.5181 15.3134H95.2181V15.6134H95.5181V15.3134ZM95.5181 14.2497L95.4034 13.9725L95.2181 14.0492V14.2497H95.5181ZM97.58 13.396L97.6948 13.6732L97.83 13.6172L97.8691 13.4762L97.58 13.396ZM98.4468 10.2703V9.97034H98.2187L98.1577 10.1902L98.4468 10.2703ZM99.7601 10.2703H100.06V9.97034H99.7601V10.2703ZM99.7601 13.6061H99.4601V13.9061H99.7601V13.6061ZM103.976 13.6061H104.276V13.3061H103.976V13.6061ZM103.976 15.3134V15.6134H104.276V15.3134H103.976ZM99.7601 15.3134V15.0134H99.4601V15.3134H99.7601ZM100.377 25.8068L100.157 26.0101L100.159 26.0124L100.377 25.8068ZM102.045 26.7766C102.421 26.7766 102.805 26.7445 103.197 26.6807L103.1 26.0885C102.739 26.1474 102.387 26.1766 102.045 26.1766V26.7766ZM103.197 26.6807C103.584 26.6177 103.911 26.5394 104.172 26.4427L103.964 25.88C103.752 25.9584 103.466 26.0289 103.1 26.0885L103.197 26.6807ZM103.768 26.1614V27.8555H104.368V26.1614H103.768ZM103.945 27.5818C103.724 27.6809 103.397 27.7719 102.953 27.8489L103.055 28.4401C103.521 28.3594 103.904 28.2579 104.19 28.1293L103.945 27.5818ZM102.952 27.849C102.522 27.925 102.101 27.9627 101.691 27.9627V28.5627C102.138 28.5627 102.593 28.5216 103.056 28.4399L102.952 27.849ZM101.691 27.9627C100.964 27.9627 100.313 27.8375 99.7324 27.5923L99.4989 28.145C100.162 28.4252 100.894 28.5627 101.691 28.5627V27.9627ZM99.7357 27.5937C99.1774 27.35 98.7245 26.9406 98.377 26.3506L97.86 26.6551C98.2654 27.3433 98.8106 27.8445 99.4956 28.1436L99.7357 27.5937ZM98.3785 26.3532C98.0473 25.7776 97.8669 24.9525 97.8669 23.8499H97.2669C97.2669 25.0063 97.4542 25.9498 97.8584 26.6524L98.3785 26.3532ZM97.8669 23.8499V15.3134H97.2669V23.8499H97.8669ZM97.5669 15.0134H95.5181V15.6134H97.5669V15.0134ZM95.8181 15.3134V14.2497H95.2181V15.3134H95.8181ZM95.6329 14.5268L97.6948 13.6732L97.4652 13.1188L95.4034 13.9725L95.6329 14.5268ZM97.8691 13.4762L98.7359 10.3505L98.1577 10.1902L97.2909 13.3158L97.8691 13.4762ZM98.4468 10.5703H99.7601V9.97034H98.4468V10.5703ZM99.4601 10.2703V13.6061H100.06V10.2703H99.4601ZM99.7601 13.9061H103.976V13.3061H99.7601V13.9061ZM103.676 13.6061V15.3134H104.276V13.6061H103.676ZM103.976 15.0134H99.7601V15.6134H103.976V15.0134ZM99.4601 15.3134V23.7843H100.06V15.3134H99.4601ZM99.4601 23.7843C99.4601 24.7256 99.6742 25.4865 100.157 26.0101L100.598 25.6035C100.257 25.234 100.06 24.6466 100.06 23.7843H99.4601ZM100.159 26.0124C100.643 26.5271 101.283 26.7766 102.045 26.7766V26.1766C101.425 26.1766 100.952 25.9795 100.596 25.6012L100.159 26.0124Z" fill="#7062D8" fill-opacity="0.68"/>
<path d="M19.3345 24.9718C19.3877 24.9905 19.4437 25 19.5001 25H30.0001C30.726 25 31.3301 25.2496 31.8171 25.7491C32.2312 26.1738 32.4665 26.643 32.5288 27.1591L20.9792 31.474L11.0001 28.6228V16H13.3355L24.1493 20.0013C24.4676 20.1309 24.671 20.2943 24.7976 20.4756C24.9237 20.6563 25.0001 20.8929 25.0001 21.215C25.0001 21.5506 24.8855 21.8424 24.6365 22.0914C24.3705 22.3574 24.073 22.5 23.7001 22.5H19.5925L17.0538 21.5281C16.9277 21.4798 16.7875 21.4845 16.6649 21.5413C16.5424 21.5981 16.448 21.702 16.4033 21.8294L15.9083 23.2394C15.8644 23.3645 15.872 23.502 15.9294 23.6215C15.9868 23.741 16.0894 23.8329 16.2145 23.8768L19.3345 24.9718ZM31.0001 9.5C31.0001 13.3639 27.8639 16.5 24.0001 16.5C20.1362 16.5 17.0001 13.3639 17.0001 9.5C17.0001 5.63614 20.1362 2.5 24.0001 2.5C27.8639 2.5 31.0001 5.63614 31.0001 9.5ZM1.97607 31.5V16H7.00007V31.5H1.97607Z" fill="#A8AADD" stroke="#7062D8" stroke-miterlimit="1.41421" stroke-linejoin="round"/>
<path d="M27.8108 7.33826H27.4234L26.9845 5.85357L24.6994 5.82775V13.574L25.9 13.6902V14H22.1689V13.6902L23.3696 13.574V5.82775L21.0845 5.85357L20.6455 7.33826H20.2711V5.3888L24.0409 5.36298L27.8108 5.3888V7.33826Z" fill="white"/>
<path d="M24.5 17.8125C29.0909 17.8125 32.8125 14.0909 32.8125 9.5C32.8125 4.90913 29.0909 1.1875 24.5 1.1875C19.9091 1.1875 16.1875 4.90913 16.1875 9.5C16.1875 14.0909 19.9091 17.8125 24.5 17.8125Z" fill="#F9C23C"/>
<path opacity="0.53" d="M31.0312 9.5C31.0312 13.107 28.107 16.0312 24.5 16.0312C20.893 16.0312 17.9688 13.107 17.9688 9.5C17.9688 5.89297 20.893 2.96875 24.5 2.96875C28.107 2.96875 31.0312 5.89297 31.0312 9.5Z" fill="#D3883E"/>
<path d="M28.472 6.73123H28.064L27.6015 5.16697L25.1939 5.13976V13.3011L26.4589 13.4235V13.75H22.5278V13.4235L23.7928 13.3011V5.13976L21.3852 5.16697L20.9228 6.73123H20.5283V4.67728L24.5002 4.65008L28.472 4.67728V6.73123Z" fill="#F9C23C"/>
</g>
<defs>
<clipPath id="clip0_75_1522">
<rect width="106" height="35" fill="white"/>
</clipPath>
</defs>
</svg>
